<svg width="139" height="16" viewBox="0 0 139 16" fill="none" xmlns="http://www.w3.org/2000/svg">
<path fill-rule="evenodd" clip-rule="evenodd" d="M13.9878 15.9346C13.8471 15.9346 13.5656 15.9346 13.4249 15.8037L8.92143 12.7937L4.41796 15.8037C4.13649 16.0654 3.71428 16.0654 3.43282 15.8037C3.15135 15.542 3.01062 15.2802 3.15135 14.8876L4.84015 9.91448L0.336683 6.90444C0.0552158 6.64269 -0.0855242 6.38095 0.0552093 5.98834C0.195943 5.59572 0.477419 5.46485 0.899619 5.46485H6.52896L8.21776 0.491745C8.49923 -0.162613 9.62509 -0.162613 9.90656 0.491745L11.5954 5.46485H17.2247C17.6469 5.46485 17.9284 5.72659 18.0691 5.98834C18.2098 6.25008 18.0691 6.64269 17.7876 6.90444L13.0027 9.91448L14.6915 14.8876C14.8322 15.2802 14.6915 15.542 14.41 15.8037C14.2693 15.9346 14.1286 15.9346 13.9878 15.9346Z" fill="#FFAD00"/>
<path fill-rule="evenodd" clip-rule="evenodd" d="M44.208 15.9336C44.0673 15.9336 43.7858 15.9336 43.6451 15.8027L39.1416 12.7927L34.6382 15.8027C34.3567 16.0645 33.9345 16.0645 33.653 15.8027C33.3716 15.541 33.2308 15.2792 33.3716 14.8866L35.0604 9.91351L30.5569 6.90346C30.2754 6.64172 30.1347 6.37997 30.2754 5.98736C30.4162 5.59474 30.6976 5.46387 31.1198 5.46387H36.7492L38.438 0.490768C38.7194 -0.163589 39.8453 -0.163589 40.1268 0.490768L41.8156 5.46387H47.4449C47.8671 5.46387 48.1486 5.72562 48.2893 5.98736C48.4301 6.2491 48.2893 6.64172 48.0079 6.90346L43.2229 9.91351L44.9117 14.8866C45.0525 15.2792 44.9117 15.541 44.6303 15.8027C44.4895 15.9336 44.3488 15.9336 44.208 15.9336Z" fill="#FFAD00"/>
<path fill-rule="evenodd" clip-rule="evenodd" d="M74.4268 15.9336C74.2861 15.9336 74.0046 15.9336 73.8639 15.8027L69.3604 12.7927L64.8569 15.8027C64.5755 16.0645 64.1532 16.0645 63.8718 15.8027C63.5903 15.541 63.4496 15.2792 63.5903 14.8866L65.2791 9.91351L60.7756 6.90346C60.4942 6.64172 60.3534 6.37997 60.4942 5.98736C60.6349 5.59474 60.9164 5.46387 61.3386 5.46387H66.9679L68.6567 0.490768C68.9382 -0.163589 70.0641 -0.163589 70.3455 0.490768L72.0343 5.46387H77.6637C78.0859 5.46387 78.3673 5.72562 78.5081 5.98736C78.6488 6.2491 78.5081 6.64172 78.2266 6.90346L73.4417 9.91351L75.1305 14.8866C75.2712 15.2792 75.1305 15.541 74.849 15.8027C74.7083 15.9336 74.5675 15.9336 74.4268 15.9336Z" fill="#FFAD00"/>
<path fill-rule="evenodd" clip-rule="evenodd" d="M104.645 15.9336C104.504 15.9336 104.223 15.9336 104.082 15.8027L99.5787 12.7927L95.0752 15.8027C94.7937 16.0645 94.3715 16.0645 94.09 15.8027C93.8086 15.541 93.6678 15.2792 93.8086 14.8866L95.4974 9.9135L90.9939 6.90346C90.7124 6.64172 90.5717 6.37997 90.7124 5.98736C90.8532 5.59474 91.1346 5.46387 91.5568 5.46387H97.1862L98.875 0.490768C99.1565 -0.163589 100.282 -0.163589 100.564 0.490768L102.253 5.46387H107.882C108.304 5.46387 108.586 5.72562 108.726 5.98736C108.867 6.2491 108.726 6.64172 108.445 6.90346L103.66 9.9135L105.349 14.8866C105.489 15.2792 105.349 15.541 105.067 15.8027C104.927 15.9336 104.786 15.9336 104.645 15.9336Z" fill="#FFAD00"/>
<path fill-rule="evenodd" clip-rule="evenodd" d="M134.863 15.9336C134.723 15.9336 134.441 15.9336 134.3 15.8027L129.797 12.7927L125.293 15.8027C125.012 16.0645 124.59 16.0645 124.308 15.8027C124.027 15.541 123.886 15.2792 124.027 14.8866L125.716 9.91351L121.212 6.90346C120.931 6.64172 120.79 6.37997 120.931 5.98736C121.071 5.59474 121.353 5.46387 121.775 5.46387H127.404L129.093 0.490768C129.375 -0.163589 130.501 -0.163589 130.782 0.490768L132.471 5.46387H138.1C138.522 5.46387 138.804 5.72562 138.945 5.98736C139.085 6.2491 138.945 6.64172 138.663 6.90346L133.878 9.91351L135.567 14.8866C135.708 15.2792 135.567 15.541 135.286 15.8027C135.145 15.9336 135.004 15.9336 134.863 15.9336Z" fill="#C4C4C4"/>
<path d="M125.293 15.803L129.797 12.7929V0.0090332C129.495 0.046955 129.215 0.207615 129.093 0.491014L127.404 5.46412H121.775C121.353 5.46412 121.071 5.59499 120.931 5.9876C120.79 6.38022 120.931 6.64196 121.212 6.9037L125.716 9.91375L124.027 14.8869C123.886 15.2795 124.027 15.5412 124.308 15.803C124.59 16.0647 125.012 16.0647 125.293 15.803Z" fill="#FFAD00"/>
</svg>
