<svg width="50" height="50" viewBox="0 0 50 50" fill="none" xmlns="http://www.w3.org/2000/svg">
<path fill-rule="evenodd" clip-rule="evenodd" d="M46.9798 25.9508C46.482 37.66 36.8317 47 25 47C13.4799 47 4.02782 38.1454 3.07842 26.8708C3.28044 26.7281 3.50846 26.5815 3.75325 26.4456C4.38874 26.0929 5.00638 25.8852 5.50604 25.8852C5.52816 25.8852 5.70678 25.904 6.11269 26.2566C6.50709 26.5993 6.91669 27.0757 7.4287 27.6714L7.42981 27.6727C7.90325 28.2236 8.4731 28.8865 9.08698 29.4018C9.69622 29.9133 10.5295 30.4372 11.5464 30.4372C12.8698 30.4372 13.6578 29.4248 14.0748 28.6771C14.5104 27.8958 14.8178 26.9209 15.058 26.1139C15.1133 25.9281 15.1652 25.7509 15.2147 25.5821L15.2147 25.582C15.2783 25.3648 15.3378 25.1615 15.3953 24.9716C15.491 25.2601 15.5886 25.5801 15.6906 25.9252C15.7243 26.0391 15.7586 26.1565 15.7936 26.276L15.7939 26.2771L15.7939 26.2772C15.9809 26.9164 16.186 27.6179 16.4015 28.172C16.5285 28.4984 16.6983 28.8808 16.9288 29.2043C17.1271 29.4825 17.6196 30.0656 18.4378 30.0656C19.0145 30.0656 19.3908 29.7309 19.5485 29.5614C19.7195 29.3776 19.8307 29.1801 19.8976 29.0475C20.0358 28.7736 20.1447 28.45 20.2331 28.148C20.416 27.5234 20.5994 26.6781 20.7807 25.7275C21.1458 23.8124 21.5381 21.2734 21.9213 18.7733L21.9819 18.3777C22.0405 17.9952 22.0988 17.6143 22.1568 17.2371C22.3029 19.1671 22.4529 21.2927 22.6067 23.4721L22.6068 23.4726C22.6569 24.1819 22.7073 24.8969 22.7582 25.6127C23.0599 29.8588 23.3755 34.1325 23.7009 37.3475C23.863 38.949 24.0312 40.3259 24.2072 41.3167C24.2933 41.8015 24.3923 42.2587 24.5133 42.6199C24.5705 42.7907 24.6614 43.03 24.8074 43.2543C24.9062 43.4061 25.3175 44 26.0981 44C26.6479 44 27.0279 43.7018 27.2228 43.4952C27.4146 43.2918 27.535 43.0693 27.6075 42.9158C27.7557 42.6024 27.862 42.2326 27.9442 41.8894C28.1144 41.1793 28.2648 40.2185 28.404 39.1398C28.6468 37.258 28.8768 34.8387 29.1103 32.3831C29.1463 32.0051 29.1823 31.6263 29.2185 31.2484C29.4845 28.4688 29.7582 25.7404 30.0667 23.6741C30.1164 23.9189 30.1664 24.1726 30.2172 24.4334L30.2648 24.6783L30.2649 24.6784C30.4605 25.6848 30.6734 26.7802 30.9323 27.6371C31.0705 28.0941 31.2545 28.5993 31.5179 29.0174C31.7589 29.4 32.299 30.0656 33.2092 30.0656C33.8749 30.0656 34.382 29.727 34.7088 29.4155C35.0336 29.1059 35.2882 28.7239 35.4866 28.3757C35.8828 27.6801 36.2296 26.7993 36.5205 26.0429L36.6401 25.7308C36.7142 25.5373 36.785 25.3524 36.8533 25.177C36.8881 25.2859 36.9237 25.3985 36.9605 25.5146L36.9607 25.5154C37.0242 25.7157 37.091 25.9267 37.1624 26.1482C37.4245 26.9601 37.7504 27.9118 38.1697 28.6714C38.5316 29.3271 39.2872 30.4372 40.5948 30.4372C41.6067 30.4372 42.3881 29.8412 42.905 29.3417C43.3897 28.8735 43.8514 28.2775 44.2398 27.7762L44.347 27.638C44.7956 27.0606 45.1641 26.6046 45.5237 26.2848C45.8812 25.9668 46.0681 25.9317 46.141 25.9317C46.4568 25.9317 46.721 25.932 46.9798 25.9508ZM46.905 22.9424C46.648 22.9317 46.4008 22.9317 46.151 22.9317H46.141C45.1155 22.9317 44.2969 23.4597 43.7046 23.9866C43.1144 24.5115 42.5888 25.1819 42.1623 25.7308L42.0904 25.8235C41.6596 26.3782 41.3248 26.8093 40.9985 27.1246C40.8849 27.2344 40.7962 27.3059 40.7301 27.3525C40.697 27.3026 40.6577 27.2383 40.6124 27.1563C40.3539 26.6879 40.1066 26.0023 39.8402 25.1769C39.7864 25.0104 39.7312 24.8356 39.6747 24.657L39.6743 24.6558C39.4755 24.0269 39.2617 23.3507 39.0449 22.8175C38.9054 22.4743 38.7213 22.0769 38.475 21.7439C38.2548 21.4462 37.7519 20.888 36.9432 20.888C36.1923 20.888 35.693 21.3704 35.4562 21.6486C35.1933 21.9575 34.9856 22.3299 34.8235 22.6589C34.5415 23.2315 34.264 23.9576 34.0125 24.6157L34.0125 24.6158L34.0106 24.6207C33.973 24.7191 33.936 24.8161 33.8996 24.9107C33.7404 25.3249 33.5904 25.7047 33.4457 26.0391C33.3058 25.4541 33.1716 24.765 33.0251 24.0126L32.9888 23.8262C32.7775 22.7424 32.536 21.5257 32.2182 20.5779C32.0612 20.1096 31.8499 19.5937 31.5465 19.1692C31.2455 18.7482 30.6839 18.194 29.8321 18.194C28.9525 18.194 28.4783 18.8867 28.3256 19.138C28.1242 19.4695 27.9819 19.8609 27.8744 20.2172C27.6531 20.951 27.4658 21.932 27.2997 23.0171C26.9644 25.2072 26.6748 28.1035 26.4028 30.9456C26.3662 31.3279 26.3299 31.7092 26.2939 32.088L26.2933 32.0941C26.2544 32.5025 26.2159 32.908 26.1775 33.3085C25.9747 30.8657 25.7754 28.1323 25.5804 25.3873C25.5298 24.6764 25.4796 23.9647 25.4297 23.2574C25.1818 19.7459 24.9416 16.3421 24.7119 13.6761C24.5743 12.0782 24.438 10.7155 24.3029 9.74245C24.2365 9.26443 24.1638 8.83086 24.0802 8.49696C24.0412 8.3415 23.9806 8.12664 23.8832 7.92198C23.8364 7.82361 23.7434 7.64579 23.583 7.47288C23.4251 7.30268 23.0688 7 22.5288 7C21.8983 7 21.5129 7.40131 21.3819 7.55624C21.2251 7.74158 21.125 7.93697 21.0662 8.0638C20.9429 8.32974 20.8439 8.64532 20.7621 8.94374C20.5929 9.56101 20.4196 10.4002 20.2456 11.3491C19.915 13.1524 19.5532 15.5145 19.1917 17.8749L19.1277 18.2923C18.7987 20.4388 18.4715 22.5571 18.1638 24.2799C17.9886 23.7268 17.7882 23.1586 17.5574 22.6755C17.389 22.323 17.1621 21.9233 16.8521 21.594C16.5349 21.257 16.0251 20.888 15.3353 20.888C14.5993 20.888 14.0803 21.3114 13.7762 21.6765C13.4826 22.0289 13.2781 22.4515 13.13 22.8107C12.8913 23.3897 12.6772 24.1236 12.4858 24.7796L12.4858 24.7796C12.4423 24.9284 12.4001 25.0732 12.359 25.2112C12.1119 26.0415 11.8874 26.704 11.6383 27.1506C11.558 27.2947 11.4973 27.3781 11.4578 27.4243C11.3441 27.3951 11.148 27.3052 10.844 27.05C10.4417 26.7122 10.0252 26.2379 9.52075 25.651L9.4481 25.5664C8.99697 25.041 8.46446 24.4209 7.90669 23.9363C7.33018 23.4355 6.51353 22.8852 5.50604 22.8852C4.62262 22.8852 3.77386 23.1475 3.05182 23.4781C3.83348 12.0378 13.3613 3 25 3C36.4564 3 45.8676 11.7569 46.905 22.9424ZM49.9979 24.6757C49.8243 11.018 38.6989 0 25 0C11.1929 0 1.26431e-08 11.1929 1.26431e-08 25C1.26431e-08 25.3583 0.00753801 25.7149 0.0224641 26.0695C-0.0173018 26.3039 -0.0043989 26.5469 0.0621797 26.777C0.973571 39.7548 11.7903 50 25 50C38.8071 50 50 38.8071 50 25C50 24.9349 49.9997 24.8698 49.9993 24.8048C50.0006 24.7615 50.0001 24.7185 49.9979 24.6757ZM23.6063 9.38689C23.6086 9.3818 23.6082 9.38329 23.6048 9.39013L23.6063 9.38689ZM11.4037 27.4756C11.4037 27.4756 11.409 27.4699 11.42 27.464C11.4092 27.4736 11.4037 27.4756 11.4037 27.4756Z" fill="#3F3631"/>
</svg>
