<svg width="45" height="51" viewBox="0 0 45 51" fill="none" xmlns="http://www.w3.org/2000/svg">
<path d="M35.6695 36.2242L31.0199 34.6464L29.3507 31.2471C30.8544 29.6886 31.8985 27.6265 32.2506 25.4756L32.4588 24.2051H34.2391C35.8574 24.2051 37.1739 22.8645 37.1739 21.2168V14.9414C37.1739 6.70271 30.5912 0 22.5 0C14.3881 0 7.82609 6.68349 7.82609 14.9414V21.2168C7.82609 22.5153 8.64401 23.6226 9.78261 24.0338V25.2012C9.78261 26.8489 11.0992 28.1895 12.7174 28.1895H13.5765C14.0006 29.1275 14.5495 29.9963 15.2174 30.7767C15.356 30.9389 15.5004 31.0961 15.6485 31.249L13.9801 34.6464L9.33036 36.2243C3.924 38.0599 0 43.8551 0 50.0039C0 50.5541 0.437967 51 0.978261 51H44.0217C44.5619 51 45 50.5541 45 50.0039C45 43.8551 41.0761 38.0599 35.6695 36.2242ZM35.2174 21.2168C35.2174 21.766 34.7785 22.2129 34.2391 22.2129H32.7461C32.9948 20.2516 33.1605 18.1645 33.2271 16.1088C33.2291 16.0509 33.2306 15.9945 33.2324 15.9375H35.2174V21.2168ZM10.7609 22.2129C10.2215 22.2129 9.78261 21.766 9.78261 21.2168V15.9375H11.7683C11.7715 16.0414 11.7749 16.1458 11.7787 16.2509C11.7788 16.2545 11.779 16.2579 11.7791 16.2615C11.7791 16.2618 11.7791 16.2621 11.7791 16.2624C11.8476 18.2618 12.0112 20.2947 12.2542 22.2128H10.7609V22.2129ZM12.7174 26.1973C12.178 26.1973 11.7391 25.7504 11.7391 25.2012V24.2051H12.5411L12.7493 25.476C12.789 25.7175 12.8378 25.9582 12.8943 26.1973H12.7174ZM11.7408 13.9453H9.81978C10.3153 7.26939 15.7869 1.99219 22.5 1.99219C29.1833 1.99219 34.679 7.2687 35.1801 13.9453H33.2593C33.1889 8.44419 28.7893 3.98438 23.3756 3.98438H21.6246C16.211 3.98438 11.8111 8.44419 11.7408 13.9453ZM21.6245 5.97656H23.3755C27.759 5.97656 31.3069 9.62735 31.3043 14.0858C31.3043 14.3992 31.3019 14.6722 31.2967 14.9205C31.2967 14.9237 31.2966 14.927 31.2966 14.9303L30.073 14.7522C26.7489 14.2689 23.6102 12.671 21.2352 10.2527C21.0517 10.0659 20.8029 9.96094 20.5435 9.96094C17.9163 9.96094 15.4013 11.1798 13.7389 13.2389C14.1486 9.18289 17.5161 5.97656 21.6245 5.97656ZM14.9224 26.1973C14.4327 24.5385 13.8723 19.6576 13.7485 16.5299L15.0651 14.7423C16.2743 13.1011 18.1556 12.0814 20.1569 11.9644C22.7901 14.516 26.1966 16.201 29.7964 16.7243L31.2366 16.9339C31.1403 19.0142 30.9436 21.1018 30.6617 23.0218C30.6616 23.0224 30.6615 23.0231 30.6614 23.0238C30.5718 23.6411 30.5012 24.0383 30.3208 25.1479C29.8027 28.312 27.484 31.1733 24.4232 31.9525C23.1635 32.2727 21.8363 32.2726 20.5773 31.9525C18.6661 31.466 16.9136 30.1195 15.7827 28.1895H17.777C18.1808 29.3488 19.2681 30.1816 20.5435 30.1816H22.5C24.1215 30.1816 25.4348 28.8445 25.4348 27.1934C25.4348 25.5456 24.1182 24.2051 22.5 24.2051H20.5435C19.2397 24.2051 18.1685 25.0625 17.7753 26.1973H14.9224ZM20.4612 33.9684C21.1322 34.1123 21.8163 34.1859 22.5 34.1859C23.0352 34.1859 23.5705 34.1403 24.0997 34.0519L22.3712 35.9133L20.4612 33.9684ZM21.0262 37.3614L17.9234 40.7025C17.0692 39.0376 16.3352 37.3049 15.7332 35.5311L16.8984 33.1582L21.0262 37.3614ZM27.9358 32.8207L29.2666 35.531C28.6636 37.3078 27.9294 39.0411 27.0761 40.704L23.7551 37.3224L27.9358 32.8207ZM19.5652 27.1934C19.5652 26.6434 20.0033 26.1973 20.5435 26.1973H22.5C23.0394 26.1973 23.4783 26.6441 23.4783 27.1934C23.4783 27.7434 23.0401 28.1895 22.5 28.1895H20.5435C20.0041 28.1895 19.5652 27.7426 19.5652 27.1934ZM1.99565 49.0078C2.38334 44.0733 5.60857 39.5881 9.94911 38.1142L14.067 36.7169C14.8214 38.8411 15.7561 40.9057 16.8514 42.8668C16.8533 42.8702 16.855 42.8736 16.8569 42.8769C16.8569 42.877 16.857 42.877 16.857 42.8771C17.6573 44.3103 18.5581 45.7109 19.5347 47.0406L20.7382 49.0078H1.99565ZM22.5 48.1199L21.1733 45.9511C21.1584 45.9268 21.1426 45.9032 21.1257 45.8803C20.3335 44.8043 19.5946 43.679 18.9215 42.5272L22.4103 38.7706L26.0864 42.5137C25.4089 43.6738 24.6673 44.8038 23.8745 45.8801C23.8265 45.9451 23.8945 45.8426 22.5 48.1199ZM24.2618 49.0078L25.4652 47.0407C26.4461 45.706 27.3533 44.2941 28.1617 42.844C28.1666 42.8352 28.1712 42.8263 28.1761 42.8175C28.1767 42.8164 28.1772 42.8154 28.1778 42.8143C29.2593 40.8719 30.1841 38.8252 30.933 36.7169L35.0508 38.1142C39.3914 39.5881 42.6167 44.0733 43.0043 49.0078H24.2618Z" fill="#3F3631"/>
</svg>
