<svg width="50" height="50" viewBox="0 0 50 50" fill="none" xmlns="http://www.w3.org/2000/svg">
<path d="M25 0C11.2196 0 0 11.2104 0 25C0 38.7896 11.2104 50 25 50C38.7896 50 50 38.7896 50 25C50 11.2196 38.7896 0 25 0ZM25 45.6982C22.4576 45.6982 20.0166 45.2376 17.7598 44.3902C18.6717 43.5704 19.6205 41.7833 19.8047 41.203C20.035 40.503 19.2705 38.6883 19.2705 38.329C19.2705 37.9698 17.1242 35.4642 16.5807 35.105C16.0464 34.7458 16.5807 32.7745 16.5807 31.5033C16.5807 30.2321 13.7159 29.5505 12.6382 28.832C11.5604 28.1135 11.2012 30.8032 9.94841 30.269C8.69565 29.7347 8.87068 27.9385 8.69566 26.5107C8.5667 25.4698 5.81247 25.1566 4.30179 25.0553C4.30179 25.0368 4.30179 25.0276 4.30179 25.0092C4.30179 15.9359 10.1695 8.21669 18.3125 5.4256C18.2388 5.4993 18.1559 5.58216 18.0914 5.66507C17.4005 6.6507 16.1109 5.6651 16.461 8.74174C16.811 11.8184 16.3412 13.2461 18.5704 13.6883C20.7904 14.1304 21.6102 13.5777 23.1301 13.6883C24.65 13.7988 24.5578 17.6216 24.9171 17.6861C24.9171 17.6861 26.916 23.1854 32.7653 24.7605C34.0089 25.0921 31.4757 27.6529 29.7255 28.4175C27.9661 29.182 26.3357 29.2926 26.0962 31.1625C25.8567 33.0324 28.5556 31.927 29.2557 32.2587C29.9558 32.5903 32.9864 33.7417 34.2299 32.0284C35.4735 30.315 40.5398 30.8954 40.0792 29.0623C39.0291 24.9079 45.9562 23.0195 43.9388 20.2745C43.4783 19.6481 43.5704 17.7321 43.4322 15.6227C44.8784 18.4414 45.6982 21.6378 45.6982 25.0184C45.6982 36.413 36.4131 45.6982 25 45.6982Z" fill="#3F3631"/>
</svg>
