<svg width="42" height="30" viewBox="0 0 42 30" fill="none" xmlns="http://www.w3.org/2000/svg">
<path d="M0.939897 25.3715C1.7968 28.4398 4.41824 29.0012 4.59312 29.1089C8.90739 30.2953 33.0897 30.2988 37.4686 29.1089C40.4678 28.2332 41.0187 25.548 41.1219 25.3715C42.2638 19.2383 42.339 11.2426 41.0694 4.28326L41.1219 4.62928C40.265 1.56095 37.6435 0.999537 37.4686 0.891845C33.2121 -0.275111 8.96685 -0.319247 4.59312 0.891845C1.59394 1.76927 1.04308 4.45274 0.939897 4.62928C-0.282508 11.0749 -0.343716 18.4703 0.939897 25.3715ZM16.8294 21.4469V8.57152L27.7873 15.0189L16.8294 21.4469Z" fill="white"/>
</svg>
