<svg width="24" height="30" viewBox="0 0 24 30" fill="none" xmlns="http://www.w3.org/2000/svg">
<path d="M12.4019 0C4.30422 0.00125002 0 5.27007 0 11.0152C0 13.6789 1.46592 17.0027 3.81312 18.0565C4.48269 18.3628 4.39407 17.989 4.9701 15.7515C5.01564 15.5652 4.99226 15.404 4.84456 15.2302C1.48931 11.2889 4.18975 3.1863 11.9231 3.1863C23.115 3.1863 21.0238 18.914 13.8702 18.914C12.0265 18.914 10.6529 17.444 11.0873 15.6252C11.6141 13.4589 12.6456 11.1302 12.6456 9.56888C12.6456 5.63383 6.87297 6.21759 6.87297 11.4314C6.87297 13.0427 7.43423 14.1302 7.43423 14.1302C7.43423 14.1302 5.5769 21.7503 5.23227 23.1741C4.64885 25.5841 5.31104 29.4854 5.36889 29.8217C5.40458 30.0067 5.6089 30.0654 5.72337 29.9129C5.90676 29.6692 8.1518 26.4166 8.78076 24.0653C9.00969 23.2091 9.94882 19.734 9.94882 19.734C10.5679 20.869 12.3526 21.8191 14.2543 21.8191C19.9112 21.8191 24 16.769 24 10.5026C23.9803 4.49506 18.9179 0 12.4019 0Z" fill="white"/>
</svg>
