<svg width="37" height="30" viewBox="0 0 37 30" fill="none" xmlns="http://www.w3.org/2000/svg">
<path d="M37 3.55154C35.6241 4.15385 34.1579 4.55308 32.6294 4.74692C34.2019 3.81 35.4021 2.33769 35.9663 0.563077C34.5002 1.43538 32.8814 2.05154 31.1563 2.39538C29.7642 0.916154 27.7801 0 25.6156 0C21.4161 0 18.0352 3.40154 18.0352 7.57154C18.0352 8.17154 18.0861 8.74846 18.2109 9.29769C11.9047 8.99077 6.32469 5.97462 2.57612 1.38C1.92169 2.51308 1.53781 3.81 1.53781 5.20615C1.53781 7.82769 2.89062 10.1515 4.90712 11.4969C3.68844 11.4738 2.49288 11.1208 1.48 10.5646C1.48 10.5877 1.48 10.6177 1.48 10.6477C1.48 14.3262 4.10931 17.3815 7.55725 18.0854C6.93981 18.2538 6.26688 18.3346 5.5685 18.3346C5.08288 18.3346 4.59262 18.3069 4.13244 18.2054C5.11525 21.2031 7.90413 23.4069 11.2203 23.4785C8.6395 25.4931 5.36269 26.7069 1.81531 26.7069C1.19325 26.7069 0.596625 26.6792 0 26.6031C3.36006 28.7654 7.34219 30 11.6365 30C25.5947 30 33.226 18.4615 33.226 8.46C33.226 8.12538 33.2144 7.80231 33.1982 7.48154C34.7037 6.41538 35.9686 5.08385 37 3.55154Z" fill="white"/>
</svg>
